<mxfile host="app.diagrams.net" modified="2022-06-03T02:28:16.231Z" agent="5.0 (Macintosh; Intel Mac OS X 10_15_7) AppleWebKit/537.36 (KHTML, like Gecko) Chrome/102.0.5005.61 Safari/537.36" etag="kWSAnnte_CLifFhgw-yk" version="18.2.1" type="github">
  <diagram name="Page-1" id="2c0d36ab-eaac-3732-788b-9136903baeff">
    <mxGraphModel dx="1539" dy="1941.5" grid="1" gridSize="10" guides="1" tooltips="1" connect="1" arrows="1" fold="1" page="1" pageScale="1.5" pageWidth="1169" pageHeight="827" math="0" shadow="0">
      <root>
        <mxCell id="0" />
        <mxCell id="1" parent="0" />
        <mxCell id="120" value="" style="opacity=30;fontSize=22;fillColor=#dae8fc;strokeColor=#6c8ebf;" parent="1" vertex="1">
          <mxGeometry x="1090" y="-461" width="150" height="90" as="geometry" />
        </mxCell>
        <mxCell id="2" value="口算练习器系统&#xa;功能结构图" style="rounded=1;fontStyle=1;fontFamily=Tahoma;fontSize=22;fillColor=#dae8fc;strokeColor=#6c8ebf;" parent="1" vertex="1">
          <mxGeometry x="562" y="189" width="190" height="80" as="geometry" />
        </mxCell>
        <mxCell id="4" value="教师模块" style="rounded=1;fontStyle=1;fontFamily=Tahoma;fontSize=22;fillColor=#dae8fc;strokeColor=#6c8ebf;" parent="1" vertex="1">
          <mxGeometry x="1000" y="334.5" width="142" height="35.5" as="geometry" />
        </mxCell>
        <mxCell id="9" value="" style="edgeStyle=elbowEdgeStyle;elbow=vertical;strokeWidth=2;rounded=0;fontSize=22;fillColor=#dae8fc;strokeColor=#6c8ebf;" parent="1" source="2" target="4" edge="1">
          <mxGeometry x="337" y="214.5" width="100" height="100" as="geometry">
            <mxPoint x="337" y="314.5" as="sourcePoint" />
            <mxPoint x="437" y="214.5" as="targetPoint" />
          </mxGeometry>
        </mxCell>
        <mxCell id="10" value="Technical Support" style="rounded=1;fontStyle=1;fontFamily=Tahoma;fontSize=22;fillColor=#dae8fc;strokeColor=#6c8ebf;" parent="1" vertex="1">
          <mxGeometry x="1070" y="-571" width="190" height="80" as="geometry" />
        </mxCell>
        <mxCell id="12" value="学生模块" style="rounded=1;fontStyle=1;fontFamily=Tahoma;fontSize=22;fillColor=#dae8fc;strokeColor=#6c8ebf;" parent="1" vertex="1">
          <mxGeometry x="578" y="334.5" width="158" height="35.5" as="geometry" />
        </mxCell>
        <mxCell id="13" value="登录模块" style="rounded=1;fontStyle=1;fontFamily=Tahoma;fontSize=22;fillColor=#dae8fc;strokeColor=#6c8ebf;" parent="1" vertex="1">
          <mxGeometry x="110" y="335.5" width="193" height="34.5" as="geometry" />
        </mxCell>
        <mxCell id="16" value="教师登录" style="rounded=1;fontStyle=1;fontFamily=Tahoma;fontSize=22;fillColor=#dae8fc;strokeColor=#6c8ebf;" parent="1" vertex="1">
          <mxGeometry x="230" y="420" width="130" height="60" as="geometry" />
        </mxCell>
        <mxCell id="17" value="学生登录" style="rounded=1;fontStyle=1;fontFamily=Tahoma;fontSize=22;fillColor=#dae8fc;strokeColor=#6c8ebf;" parent="1" vertex="1">
          <mxGeometry x="230" y="500" width="130" height="60" as="geometry" />
        </mxCell>
        <mxCell id="25" value="在线练习" style="rounded=1;fontStyle=1;fontFamily=Tahoma;fontSize=22;fillColor=#dae8fc;strokeColor=#6c8ebf;" parent="1" vertex="1">
          <mxGeometry x="417" y="454.5" width="130" height="60" as="geometry" />
        </mxCell>
        <mxCell id="26" value="试卷列表展示" style="rounded=1;fontStyle=1;fontFamily=Tahoma;fontSize=22;fillColor=#dae8fc;strokeColor=#6c8ebf;" parent="1" vertex="1">
          <mxGeometry x="417" y="544.5" width="130" height="60" as="geometry" />
        </mxCell>
        <mxCell id="28" value="练习试卷" style="rounded=1;fontStyle=1;fontFamily=Tahoma;fontSize=22;fillColor=#dae8fc;strokeColor=#6c8ebf;" parent="1" vertex="1">
          <mxGeometry x="417" y="649" width="130" height="60" as="geometry" />
        </mxCell>
        <mxCell id="29" value="做题历史" style="rounded=1;fontStyle=1;fontFamily=Tahoma;fontSize=22;fillColor=#dae8fc;strokeColor=#6c8ebf;" parent="1" vertex="1">
          <mxGeometry x="592" y="454.5" width="130" height="60" as="geometry" />
        </mxCell>
        <mxCell id="30" value="显示做题历史" style="rounded=1;fontStyle=1;fontFamily=Tahoma;fontSize=22;fillColor=#dae8fc;strokeColor=#6c8ebf;" parent="1" vertex="1">
          <mxGeometry x="592" y="544.5" width="130" height="60" as="geometry" />
        </mxCell>
        <mxCell id="33" value="导入批改" style="rounded=1;fontStyle=1;fontFamily=Tahoma;fontSize=22;fillColor=#dae8fc;strokeColor=#6c8ebf;" parent="1" vertex="1">
          <mxGeometry x="767" y="454.5" width="130" height="60" as="geometry" />
        </mxCell>
        <mxCell id="35" value="导入做题&#xa;进行批改" style="rounded=1;fontStyle=1;fontFamily=Tahoma;fontSize=22;fillColor=#dae8fc;strokeColor=#6c8ebf;" parent="1" vertex="1">
          <mxGeometry x="767" y="544.5" width="130" height="60" as="geometry" />
        </mxCell>
        <mxCell id="41" value="FAQ" style="rounded=1;fontStyle=1;fontFamily=Tahoma;fontSize=22;fillColor=#dae8fc;strokeColor=#6c8ebf;" parent="1" vertex="1">
          <mxGeometry x="1100" y="-451" width="130" height="60" as="geometry" />
        </mxCell>
        <mxCell id="42" value="Know Issues" style="rounded=1;fontStyle=1;fontFamily=Tahoma;fontSize=22;fillColor=#dae8fc;strokeColor=#6c8ebf;" parent="1" vertex="1">
          <mxGeometry x="1100" y="-361" width="130" height="60" as="geometry" />
        </mxCell>
        <mxCell id="43" value="Knowhow" style="rounded=1;fontStyle=1;fontFamily=Tahoma;fontSize=22;fillColor=#dae8fc;strokeColor=#6c8ebf;" parent="1" vertex="1">
          <mxGeometry x="1100" y="-271" width="130" height="60" as="geometry" />
        </mxCell>
        <mxCell id="7vB2gtOxc-4As1Kt2RHt-132" style="edgeStyle=orthogonalEdgeStyle;rounded=0;orthogonalLoop=1;jettySize=auto;html=1;exitX=0;exitY=0.5;exitDx=0;exitDy=0;entryX=0;entryY=0.75;entryDx=0;entryDy=0;fontSize=22;fillColor=#dae8fc;strokeColor=#6c8ebf;" edge="1" parent="1" source="44" target="47">
          <mxGeometry relative="1" as="geometry" />
        </mxCell>
        <mxCell id="7vB2gtOxc-4As1Kt2RHt-134" style="edgeStyle=orthogonalEdgeStyle;rounded=0;orthogonalLoop=1;jettySize=auto;html=1;exitX=0;exitY=0.5;exitDx=0;exitDy=0;entryX=0;entryY=0.5;entryDx=0;entryDy=0;fontSize=22;fillColor=#dae8fc;strokeColor=#6c8ebf;" edge="1" parent="1" source="44" target="7vB2gtOxc-4As1Kt2RHt-126">
          <mxGeometry relative="1" as="geometry" />
        </mxCell>
        <mxCell id="44" value="学生管理" style="rounded=1;fontStyle=1;fontFamily=Tahoma;fontSize=22;fillColor=#dae8fc;strokeColor=#6c8ebf;" parent="1" vertex="1">
          <mxGeometry x="925" y="454.50000000000006" width="130" height="60" as="geometry" />
        </mxCell>
        <mxCell id="45" value="搜索学生" style="rounded=1;fontStyle=1;fontFamily=Tahoma;fontSize=22;fillColor=#dae8fc;strokeColor=#6c8ebf;" parent="1" vertex="1">
          <mxGeometry x="925" y="544.5" width="130" height="60" as="geometry" />
        </mxCell>
        <mxCell id="46" value="查看学生&#xa;做题历史" style="rounded=1;fontStyle=1;fontFamily=Tahoma;fontSize=22;fillColor=#dae8fc;strokeColor=#6c8ebf;" parent="1" vertex="1">
          <mxGeometry x="925" y="634.5" width="130" height="60" as="geometry" />
        </mxCell>
        <mxCell id="47" value="新增学生" style="rounded=1;fontStyle=1;fontFamily=Tahoma;fontSize=22;fillColor=#dae8fc;strokeColor=#6c8ebf;" parent="1" vertex="1">
          <mxGeometry x="925" y="724.5000000000001" width="130" height="60" as="geometry" />
        </mxCell>
        <mxCell id="48" value="试卷管理" style="rounded=1;fontStyle=1;fontFamily=Tahoma;fontSize=22;fillColor=#dae8fc;strokeColor=#6c8ebf;" parent="1" vertex="1">
          <mxGeometry x="1100" y="454.50000000000006" width="130" height="60" as="geometry" />
        </mxCell>
        <mxCell id="49" value="搜索试卷" style="rounded=1;fontStyle=1;fontFamily=Tahoma;fontSize=22;fillColor=#dae8fc;strokeColor=#6c8ebf;" parent="1" vertex="1">
          <mxGeometry x="1100" y="544.5" width="130" height="60" as="geometry" />
        </mxCell>
        <mxCell id="50" value="新增试卷" style="rounded=1;fontStyle=1;fontFamily=Tahoma;fontSize=22;fillColor=#dae8fc;strokeColor=#6c8ebf;" parent="1" vertex="1">
          <mxGeometry x="1100" y="634.5" width="130" height="60" as="geometry" />
        </mxCell>
        <mxCell id="51" value="删除试卷" style="rounded=1;fontStyle=1;fontFamily=Tahoma;fontSize=22;fillColor=#dae8fc;strokeColor=#6c8ebf;" parent="1" vertex="1">
          <mxGeometry x="1100" y="724.5000000000001" width="130" height="60" as="geometry" />
        </mxCell>
        <mxCell id="59" value="" style="edgeStyle=elbowEdgeStyle;elbow=vertical;strokeWidth=2;rounded=0;fontSize=22;fillColor=#dae8fc;strokeColor=#6c8ebf;" parent="1" source="2" target="12" edge="1">
          <mxGeometry x="347" y="224.5" width="100" height="100" as="geometry">
            <mxPoint x="861.9999999999999" y="274.5" as="sourcePoint" />
            <mxPoint x="1466.9999999999998" y="344.5" as="targetPoint" />
          </mxGeometry>
        </mxCell>
        <mxCell id="61" value="" style="edgeStyle=elbowEdgeStyle;elbow=vertical;strokeWidth=2;rounded=0;fontSize=22;fillColor=#dae8fc;strokeColor=#6c8ebf;" parent="1" source="2" target="13" edge="1">
          <mxGeometry x="-23" y="134.5" width="100" height="100" as="geometry">
            <mxPoint x="-23" y="234.5" as="sourcePoint" />
            <mxPoint x="77" y="134.5" as="targetPoint" />
          </mxGeometry>
        </mxCell>
        <mxCell id="64" value="" style="edgeStyle=elbowEdgeStyle;elbow=horizontal;strokeWidth=2;rounded=0;fontSize=22;fillColor=#dae8fc;strokeColor=#6c8ebf;" parent="1" source="13" target="16" edge="1">
          <mxGeometry x="-23" y="134.5" width="100" height="100" as="geometry">
            <mxPoint x="-23" y="234.5" as="sourcePoint" />
            <mxPoint x="77" y="134.5" as="targetPoint" />
            <Array as="points">
              <mxPoint x="202" y="434.5" />
            </Array>
          </mxGeometry>
        </mxCell>
        <mxCell id="65" value="" style="edgeStyle=elbowEdgeStyle;elbow=horizontal;strokeWidth=2;rounded=0;fontSize=22;fillColor=#dae8fc;strokeColor=#6c8ebf;" parent="1" source="13" target="17" edge="1">
          <mxGeometry x="-23" y="134.5" width="100" height="100" as="geometry">
            <mxPoint x="-23" y="234.5" as="sourcePoint" />
            <mxPoint x="77" y="134.5" as="targetPoint" />
            <Array as="points">
              <mxPoint x="202" y="474.5" />
            </Array>
          </mxGeometry>
        </mxCell>
        <mxCell id="70" value="" style="edgeStyle=elbowEdgeStyle;elbow=horizontal;strokeWidth=2;rounded=0;fontSize=22;fillColor=#dae8fc;strokeColor=#6c8ebf;" parent="1" source="25" target="26" edge="1">
          <mxGeometry x="-23" y="134.5" width="100" height="100" as="geometry">
            <mxPoint x="-23" y="234.5" as="sourcePoint" />
            <mxPoint x="77" y="134.5" as="targetPoint" />
            <Array as="points">
              <mxPoint x="397" y="534.5" />
            </Array>
          </mxGeometry>
        </mxCell>
        <mxCell id="72" value="" style="edgeStyle=elbowEdgeStyle;elbow=horizontal;strokeWidth=2;rounded=0;fontSize=22;fillColor=#dae8fc;strokeColor=#6c8ebf;" parent="1" source="25" target="28" edge="1">
          <mxGeometry x="-23" y="134.5" width="100" height="100" as="geometry">
            <mxPoint x="-23" y="234.5" as="sourcePoint" />
            <mxPoint x="77" y="134.5" as="targetPoint" />
            <Array as="points">
              <mxPoint x="397" y="614.5" />
            </Array>
          </mxGeometry>
        </mxCell>
        <mxCell id="73" value="" style="edgeStyle=elbowEdgeStyle;elbow=horizontal;strokeWidth=2;rounded=0;fontSize=22;fillColor=#dae8fc;strokeColor=#6c8ebf;" parent="1" source="29" target="30" edge="1">
          <mxGeometry x="-23" y="134.5" width="100" height="100" as="geometry">
            <mxPoint x="-23" y="234.5" as="sourcePoint" />
            <mxPoint x="77" y="134.5" as="targetPoint" />
            <Array as="points">
              <mxPoint x="567" y="534.5" />
            </Array>
          </mxGeometry>
        </mxCell>
        <mxCell id="77" value="" style="edgeStyle=elbowEdgeStyle;elbow=horizontal;strokeWidth=2;rounded=0;fontSize=22;fillColor=#dae8fc;strokeColor=#6c8ebf;" parent="1" source="33" target="35" edge="1">
          <mxGeometry x="-23" y="134.5" width="100" height="100" as="geometry">
            <mxPoint x="-23" y="234.5" as="sourcePoint" />
            <mxPoint x="77" y="134.5" as="targetPoint" />
            <Array as="points">
              <mxPoint x="747" y="574.5" />
            </Array>
          </mxGeometry>
        </mxCell>
        <mxCell id="82" value="" style="edgeStyle=elbowEdgeStyle;elbow=horizontal;strokeWidth=2;rounded=0;fontSize=22;fillColor=#dae8fc;strokeColor=#6c8ebf;" parent="1" source="41" target="42" edge="1">
          <mxGeometry x="100" y="-771" width="100" height="100" as="geometry">
            <mxPoint x="100" y="-671" as="sourcePoint" />
            <mxPoint x="200" y="-771" as="targetPoint" />
            <Array as="points">
              <mxPoint x="1080" y="-371" />
            </Array>
          </mxGeometry>
        </mxCell>
        <mxCell id="83" value="" style="edgeStyle=elbowEdgeStyle;elbow=horizontal;strokeWidth=2;rounded=0;fontSize=22;fillColor=#dae8fc;strokeColor=#6c8ebf;" parent="1" source="41" target="43" edge="1">
          <mxGeometry x="100" y="-771" width="100" height="100" as="geometry">
            <mxPoint x="100" y="-671" as="sourcePoint" />
            <mxPoint x="200" y="-771" as="targetPoint" />
            <Array as="points">
              <mxPoint x="1080" y="-321" />
            </Array>
          </mxGeometry>
        </mxCell>
        <mxCell id="84" value="" style="edgeStyle=elbowEdgeStyle;elbow=horizontal;strokeWidth=2;rounded=0;fontSize=22;fillColor=#dae8fc;strokeColor=#6c8ebf;" parent="1" source="44" target="45" edge="1">
          <mxGeometry x="-315" y="134.5" width="100" height="100" as="geometry">
            <mxPoint x="-315" y="234.5" as="sourcePoint" />
            <mxPoint x="-215" y="134.5" as="targetPoint" />
            <Array as="points">
              <mxPoint x="905" y="544.5" />
            </Array>
          </mxGeometry>
        </mxCell>
        <mxCell id="85" value="" style="edgeStyle=elbowEdgeStyle;elbow=horizontal;strokeWidth=2;rounded=0;fontSize=22;fillColor=#dae8fc;strokeColor=#6c8ebf;" parent="1" source="44" target="46" edge="1">
          <mxGeometry x="-315" y="134.5" width="100" height="100" as="geometry">
            <mxPoint x="-315" y="234.5" as="sourcePoint" />
            <mxPoint x="-215" y="134.5" as="targetPoint" />
            <Array as="points">
              <mxPoint x="905" y="574.5" />
            </Array>
          </mxGeometry>
        </mxCell>
        <mxCell id="87" value="" style="edgeStyle=elbowEdgeStyle;elbow=horizontal;strokeWidth=2;rounded=0;fontSize=22;fillColor=#dae8fc;strokeColor=#6c8ebf;" parent="1" source="48" target="49" edge="1">
          <mxGeometry x="-315" y="134.5" width="100" height="100" as="geometry">
            <mxPoint x="-315" y="234.5" as="sourcePoint" />
            <mxPoint x="-215" y="134.5" as="targetPoint" />
            <Array as="points">
              <mxPoint x="1075" y="534.5" />
            </Array>
          </mxGeometry>
        </mxCell>
        <mxCell id="88" value="" style="edgeStyle=elbowEdgeStyle;elbow=horizontal;strokeWidth=2;rounded=0;fontSize=22;fillColor=#dae8fc;strokeColor=#6c8ebf;" parent="1" source="48" target="50" edge="1">
          <mxGeometry x="-315" y="134.5" width="100" height="100" as="geometry">
            <mxPoint x="-315" y="234.5" as="sourcePoint" />
            <mxPoint x="-215" y="134.5" as="targetPoint" />
            <Array as="points">
              <mxPoint x="1075" y="594.5" />
            </Array>
          </mxGeometry>
        </mxCell>
        <mxCell id="89" value="" style="edgeStyle=elbowEdgeStyle;elbow=horizontal;strokeWidth=2;rounded=0;fontSize=22;fillColor=#dae8fc;strokeColor=#6c8ebf;" parent="1" source="48" target="51" edge="1">
          <mxGeometry x="-315" y="134.5" width="100" height="100" as="geometry">
            <mxPoint x="-315" y="234.5" as="sourcePoint" />
            <mxPoint x="-215" y="134.5" as="targetPoint" />
            <Array as="points">
              <mxPoint x="1075" y="624.5" />
            </Array>
          </mxGeometry>
        </mxCell>
        <mxCell id="100" value="" style="edgeStyle=elbowEdgeStyle;elbow=vertical;strokeWidth=2;rounded=0;fontSize=22;fillColor=#dae8fc;strokeColor=#6c8ebf;" parent="1" source="12" target="25" edge="1">
          <mxGeometry x="-23" y="134.5" width="100" height="100" as="geometry">
            <mxPoint x="-23" y="234.5" as="sourcePoint" />
            <mxPoint x="77" y="134.5" as="targetPoint" />
          </mxGeometry>
        </mxCell>
        <mxCell id="101" value="" style="edgeStyle=elbowEdgeStyle;elbow=vertical;strokeWidth=2;rounded=0;fontSize=22;fillColor=#dae8fc;strokeColor=#6c8ebf;" parent="1" source="12" target="29" edge="1">
          <mxGeometry x="-23" y="134.5" width="100" height="100" as="geometry">
            <mxPoint x="-23" y="234.5" as="sourcePoint" />
            <mxPoint x="77" y="134.5" as="targetPoint" />
          </mxGeometry>
        </mxCell>
        <mxCell id="102" value="" style="edgeStyle=elbowEdgeStyle;elbow=vertical;strokeWidth=2;rounded=0;fontSize=22;fillColor=#dae8fc;strokeColor=#6c8ebf;" parent="1" source="12" target="33" edge="1">
          <mxGeometry x="-23" y="134.5" width="100" height="100" as="geometry">
            <mxPoint x="-23" y="234.5" as="sourcePoint" />
            <mxPoint x="77" y="134.5" as="targetPoint" />
          </mxGeometry>
        </mxCell>
        <mxCell id="103" value="" style="edgeStyle=elbowEdgeStyle;elbow=vertical;strokeWidth=2;rounded=0;fontSize=22;fillColor=#dae8fc;strokeColor=#6c8ebf;" parent="1" source="10" target="41" edge="1">
          <mxGeometry x="100" y="-771" width="100" height="100" as="geometry">
            <mxPoint x="100" y="-671" as="sourcePoint" />
            <mxPoint x="200" y="-771" as="targetPoint" />
          </mxGeometry>
        </mxCell>
        <mxCell id="104" value="" style="edgeStyle=elbowEdgeStyle;elbow=vertical;strokeWidth=2;rounded=0;fontSize=22;fillColor=#dae8fc;strokeColor=#6c8ebf;" parent="1" source="4" target="48" edge="1">
          <mxGeometry x="-25" y="150" width="100" height="100" as="geometry">
            <mxPoint x="-25" y="250" as="sourcePoint" />
            <mxPoint x="75" y="150" as="targetPoint" />
          </mxGeometry>
        </mxCell>
        <mxCell id="105" value="" style="edgeStyle=elbowEdgeStyle;elbow=vertical;strokeWidth=2;rounded=0;fontSize=22;fillColor=#dae8fc;strokeColor=#6c8ebf;" parent="1" source="4" target="44" edge="1">
          <mxGeometry x="-25" y="150" width="100" height="100" as="geometry">
            <mxPoint x="-25" y="250" as="sourcePoint" />
            <mxPoint x="75" y="150" as="targetPoint" />
          </mxGeometry>
        </mxCell>
        <mxCell id="7vB2gtOxc-4As1Kt2RHt-126" value="删除学生" style="rounded=1;fontStyle=1;fontFamily=Tahoma;fontSize=22;fillColor=#dae8fc;strokeColor=#6c8ebf;" vertex="1" parent="1">
          <mxGeometry x="925" y="810.0000000000001" width="130" height="60" as="geometry" />
        </mxCell>
      </root>
    </mxGraphModel>
  </diagram>
</mxfile>
